<svg width="110" height="30" viewBox="0 0 110 30" fill="none" xmlns="http://www.w3.org/2000/svg">
<path d="M20.8281 21.9727C19.7975 18.6252 18.6058 17.9949 17.1625 17.4232C20.5685 16.4778 23.2337 13.995 23.2337 9.48193C23.2357 1.64567 17.2027 0.154785 14.1611 0.154785C9.32182 0.154785 5.33608 0.21135 0.496826 0.21135C1.11079 1.02952 1.39462 2.73657 1.39462 6.69207C1.39462 11.7344 1.39462 11.7344 1.39462 29.0534H8.60117C8.0798 28.3564 7.75973 27.015 7.72149 24.1888C7.70538 22.904 7.72149 18.5 7.72149 18.5C9.69825 18.5 12.2065 18.4697 13.5491 20.1545C14.7408 21.6494 15.7675 24.5282 17.1665 29.112H25.0554C23.2337 27.8312 22.0843 26.0514 20.8281 21.9727ZM11.9931 13.797C10.0183 13.797 7.71746 13.797 7.71746 13.797C7.71746 13.797 7.72149 6.77288 7.72149 5.36481C7.72149 5.36481 10.4531 5.36481 11.9931 5.36481C14.765 5.36481 17.1524 6.20117 17.1524 9.28193C17.1504 12.3627 15.2964 13.797 11.9931 13.797Z" fill="white"/>
<path d="M109.363 18.6677C109.336 14.786 107.621 10.9104 104.327 9.03255C99.8924 6.50704 93.02 6.99225 89.5499 11.0952C85.3707 16.0366 86.415 25.152 92.1055 28.3353C96.523 30.806 103.318 30.3289 106.782 26.2787C108.536 24.2343 109.382 21.451 109.363 18.6677ZM98.1835 24.7236C96.9008 24.7094 95.6027 24.0861 94.7347 22.8559C93.9674 21.7677 93.5877 20.2735 93.5857 18.6677C93.5877 17.0598 93.9655 15.5656 94.7347 14.4795C95.6027 13.2492 96.9008 12.628 98.1835 12.6117C99.4661 12.6259 100.762 13.2492 101.632 14.4795C102.399 15.5676 102.779 17.0618 102.781 18.6677C102.779 20.2755 102.401 21.7697 101.632 22.8559C100.764 24.0861 99.4661 24.7094 98.1835 24.7236Z" fill="white"/>
<path d="M78.5088 24.4841C76.1798 24.4841 72.7763 22.8496 72.7763 18.6655C72.7763 14.4814 76.1798 12.8469 78.5088 12.8469C80.3431 12.8469 82.4445 13.4274 83.9029 14.4109C83.9029 14.4109 84.4866 12.5305 85.9034 10.1482C83.701 8.37868 80.1887 7.48584 77.3927 7.48584C72.341 7.48584 66.1099 10.4647 66.1099 18.6655C66.1099 26.8664 72.341 29.8452 77.3927 29.8452C80.1887 29.8452 83.701 28.9523 85.9034 27.1828C84.4866 24.8005 83.9029 22.9201 83.9029 22.9201C82.4445 23.9037 80.3431 24.4841 78.5088 24.4841Z" fill="white"/>
<path d="M54.8214 24.5917C59.6704 22.1838 63.9141 19.72 64.1582 15.1619C64.2975 12.5822 63.2825 10.3361 61.4946 9.06523C57.9108 6.51744 52.2122 7.18686 48.8625 10.1063C45.4906 13.0458 44.746 16.8605 45.3312 21.0168C45.422 21.6563 45.7671 22.5855 45.9466 23.175C43.7451 24.0542 40.6436 24.8895 37.984 25.0613C36.4665 25.1592 34.9632 24.9314 33.6475 24.4838C33.6475 24.4838 37.8771 22.8193 40.5084 20.5792C44.3666 17.2961 43.7734 11.2713 40.6678 9.06523C37.084 6.51744 31.3855 7.18686 28.0357 10.1063C24.6638 13.0458 23.9192 16.8605 24.5044 21.0168C24.9625 24.276 26.5506 26.9337 29.5693 28.4004C31.7911 29.4795 33.926 29.8392 37.2172 29.8392C42.2418 29.8392 46.5722 27.8729 48.5356 27.1935C49.0845 27.6531 52.0669 29.8452 56.5144 29.8452C59.3334 29.8452 63.0585 29.4815 66.1095 27.5412C65.2156 26.2083 64.5396 24.7456 64.1623 23.2569C62.2251 24.35 58.4899 25.6808 54.8214 24.5917ZM32.0009 14.1388C32.9978 12.744 35.1287 11.665 36.743 12.732C38.43 13.8491 37.6854 15.6955 36.7753 16.7386C35.1388 18.6069 33.0583 19.4902 30.8669 20.3614C30.7337 19.2724 30.6126 16.0831 32.0009 14.1388ZM52.8297 14.1388C53.8266 12.744 55.9575 11.665 57.5718 12.732C59.2588 13.8491 58.6393 16.0791 57.7272 17.1202C56.0907 18.9886 54.0566 19.8958 51.8652 20.7671C51.3607 18.9606 51.4394 16.0831 52.8297 14.1388Z" fill="white"/>
</svg>
